# xmcd
#
# Track frame offsets:
#	150
#	23873
#	33725
#	57190
#	70649
#	90683
#	113263
#	144675
#	157800
#	165131
#	173889
#	190493
#
# Disc length: 2763 seconds
#
# Revision: 1
# Processed by: cddbd v1.4PL0 Copyright (c) Steve Scherf et al.
# Submitted via: audiograbber 1.82.02
#
DISCID=910ac90c
DTITLE=Lightnin' Hopkins - Lightnin' Hopkins
DYEAR=1900
DGENRE=Blues
TTITLE0=Early In The Mornin' Blues
TTITLE1=Coffee House Blues
TTITLE2=I've Been Bucked And Scorned
TTITLE3=Stool Pigeon Blues
TTITLE4=Leave Jike Mary Alone
TTITLE5=Get Off My Toe
TTITLE6=Big Black Cadillac Man
TTITLE7=Trouble In Mind
TTITLE8=Long Time Ago
TTITLE9=Bunion Stew
TTITLE10=Gonna Pull A Party
TTITLE11=Bottle It Up And Go
EXTD=
EXTT0=
EXTT1=
EXTT2=
EXTT3=
EXTT4=
EXTT5=
EXTT6=
EXTT7=
EXTT8=
EXTT9=
EXTT10=
EXTT11=
PLAYORDER=
